<svg xmlns="http://www.w3.org/2000/svg" version="1.1" xmlns:xlink="http://www.w3.org/1999/xlink" xmlns:svgjs="http://svgjs.dev/svgjs" width="1000" height="1000" preserveAspectRatio="none" viewBox="0 0 1000 1000"><g mask="url(&quot;#SvgjsMask1071&quot;)" fill="none"><rect width="1000" height="1000" x="0" y="0" fill="rgba(86, 86, 86, 1)"></rect><path d="M0,405.934C84.889,428.016,183.864,448.339,257.768,401.095C331.679,353.846,339.22,251.15,370.396,169.154C399.43,92.79,456.29,16.197,433.995,-62.399C411.85,-140.467,318.032,-168.784,258.802,-224.253C207.108,-272.664,173.393,-340.59,107.973,-367.721C39.131,-396.272,-38.803,-396.587,-110.862,-377.562C-184.133,-358.217,-241.802,-308.472,-300.052,-259.996C-368.884,-202.713,-479.819,-158.748,-481.382,-69.212C-483,23.486,-366.542,69.122,-307.038,140.219C-265.34,190.041,-233.055,243.683,-183.928,286.198C-127.467,335.06,-72.263,387.136,0,405.934" fill="#424242"></path><path d="M1000 1352.204C1066.4569999999999 1345.395 1131.033 1327.4 1186.102 1289.5810000000001 1240.077 1252.513 1267.421 1192.04 1308.02 1140.6680000000001 1363.391 1070.604 1479.002 1021.331 1468.151 932.69 1457.38 844.703 1319.612 840.325 1262.913 772.185 1204.328 701.778 1218.301 576.017 1136.719 534.3779999999999 1056.487 493.429 955.642 534.11 874.969 574.183 801.759 610.549 758.213 682.5 708.262 747.208 661.185 808.193 610.078 866.49 591.592 941.28 571.8969999999999 1020.959 563.773 1109.0529999999999 600.706 1182.351 637.216 1254.808 713.001 1298.643 787.663 1330.403 854.49 1358.83 927.756 1359.606 1000 1352.204" fill="#6a6a6a"></path></g><defs><mask id="SvgjsMask1071"><rect width="1000" height="1000" fill="#ffffff"></rect></mask></defs></svg>